<svg width="500" height="194" viewBox="0 0 500 194" fill="none" xmlns="http://www.w3.org/2000/svg">
<path fill-rule="evenodd" clip-rule="evenodd" d="M0 0V194H500V0H0ZM184 10H10V184H184V10ZM412.942 81.5645C412.942 85.1836 412.959 88.8027 412.992 92.4219C413.025 96.0078 413.042 99.6104 413.042 103.229C413.042 110.899 411.066 117.258 407.115 122.305C403.164 127.385 397.271 130.356 389.435 131.22H389.086C387.924 131.22 387.343 130.556 387.343 129.228L387.492 121.159C387.525 120.429 387.691 119.931 387.99 119.665C388.289 119.433 388.754 119.233 389.385 119.067C390.082 118.868 390.746 118.686 391.377 118.52C392.041 118.354 392.705 118.104 393.369 117.772C396.191 116.312 398.051 114.12 398.947 111.198C399.877 108.243 400.342 105.321 400.342 102.433C400.342 93.5342 400.325 84.6357 400.292 75.7373V60.042C400.292 58.6807 400.973 58 402.334 58H411.1C412.461 58 413.142 58.6807 413.142 60.042C413.142 62.4688 413.135 62.1897 413.122 61.6313C413.105 60.9444 413.079 59.8351 413.042 62.8203C412.976 68.2324 412.942 76.1191 412.942 81.5645ZM334.092 58C332.73 58 332.05 58.6973 332.05 60.0918C332.05 61.8516 332.066 63.6279 332.1 65.4209C332.166 67.2139 332.216 68.9902 332.249 70.75C332.349 77.8555 332.398 84.9775 332.398 92.1162C332.398 99.7529 332.349 107.356 332.249 114.927C332.216 116.72 332.166 118.529 332.1 120.355C332.033 122.148 332 127.115 332 128.908C332 130.303 332.681 131 334.042 131H342.658C344.02 131 344.7 130.336 344.7 129.008L344.85 105.215C344.85 104.816 345.049 104.617 345.447 104.617H358.048C361.899 104.617 365.685 104.086 369.403 103.023C373.155 101.961 376.459 100.234 379.314 97.8438C382.17 95.4199 384.229 92.2158 385.49 88.2314C385.855 87.0693 386.138 85.874 386.337 84.6455C386.536 83.3838 386.636 82.1553 386.636 80.96C386.636 76.6768 385.772 73.0742 384.046 70.1523C382.319 67.1973 379.995 64.8398 377.073 63.0801C374.151 61.2871 370.897 59.9922 367.312 59.1953C363.759 58.3984 360.14 58 356.454 58H334.092ZM358.197 92.5645H344.899C344.899 88.8125 344.883 85.0605 344.85 81.3086C344.85 77.5234 344.833 73.7549 344.8 70.0029H358.745C360.638 70.0029 362.563 70.2852 364.522 70.8496C366.515 71.3809 368.308 72.2275 369.901 73.3896C371.528 74.5518 372.724 76.0791 373.487 77.9717C373.653 78.4365 373.819 79.001 373.985 79.665C374.151 80.2959 374.234 80.8438 374.234 81.3086C374.234 81.8398 374.151 82.4209 373.985 83.0518C373.819 83.6826 373.637 84.2471 373.438 84.7451C372.674 86.6377 371.445 88.165 369.752 89.3271C368.059 90.4561 366.183 91.2861 364.124 91.8174C362.099 92.3154 360.123 92.5645 358.197 92.5645ZM261.984 131C261.52 131 261.021 130.934 260.49 130.801C259.959 130.635 259.693 130.236 259.693 129.605C259.693 129.34 259.743 129.074 259.843 128.809C259.942 128.543 260.042 128.294 260.142 128.062C263.063 121.753 265.952 115.444 268.808 109.136C271.696 102.827 274.535 96.4854 277.324 90.1104C279.615 84.8643 281.89 79.6182 284.147 74.3721C286.405 69.0928 288.729 63.8633 291.12 58.6836C291.22 58.4844 291.386 58.3848 291.618 58.3848C291.851 58.3848 292.017 58.4844 292.116 58.6836C294.507 63.8633 296.831 69.0928 299.089 74.3721C301.347 79.6182 303.621 84.8643 305.912 90.1104C308.701 96.4854 311.523 102.827 314.379 109.136C317.268 115.444 320.173 121.753 323.095 128.062C323.194 128.294 323.294 128.543 323.394 128.809C323.493 129.074 323.543 129.34 323.543 129.605C323.543 130.236 323.277 130.635 322.746 130.801C322.215 130.934 321.717 131 321.252 131H311.191C310.361 131 309.73 130.585 309.299 129.755C309.033 129.224 308.784 128.659 308.552 128.062C308.319 127.464 308.087 126.899 307.854 126.368C307.124 124.708 306.41 123.015 305.713 121.288C305.049 119.562 304.335 117.868 303.571 116.208C303.472 115.942 303.289 115.81 303.023 115.81H278.37C278.104 115.81 277.922 115.942 277.822 116.208C277.025 117.868 276.262 119.562 275.531 121.288C274.834 123.015 274.104 124.725 273.34 126.418C273.107 126.949 272.858 127.514 272.593 128.111C272.36 128.709 272.095 129.273 271.796 129.805C271.364 130.602 270.75 131 269.953 131H261.984ZM282.504 105.4H299.089C297.761 102.08 296.416 98.7764 295.055 95.4893L290.971 85.5283C289.576 88.8486 288.165 92.1689 286.737 95.4893C285.343 98.7764 283.932 102.08 282.504 105.4ZM91.8174 46.9113C93.4799 46.3112 95.2299 46 97.0017 46C98.7735 46 100.523 46.3112 102.186 46.9113L163.544 69.4275C165.622 70.2054 167 72.2059 167 74.4508C167 76.6957 165.622 78.7184 163.544 79.4741L102.164 101.924C100.502 102.524 98.7516 102.835 96.9798 102.835C95.208 102.835 93.458 102.524 91.7956 101.924L56.8839 89.1207C58.8307 87.0758 61.215 85.4088 63.9275 84.3197L98.2704 70.6055C100.064 69.8942 100.939 67.8271 100.239 66.0045C99.5391 64.1818 97.5048 63.2928 95.7111 64.004L61.3682 77.7182C57.0808 79.4297 53.4277 82.2081 50.6059 85.6533C46.7341 90.7211 44.5029 97.0558 44.5029 103.768V109.236C45.8154 112.193 46.756 115.416 47.456 118.572C48.856 124.684 49.7966 133.219 47.9154 142.733C47.7404 143.688 47.1716 144.533 46.3623 145.044C45.5529 145.556 44.5686 145.733 43.6498 145.489L29.6502 141.933C28.5127 141.644 27.594 140.799 27.2002 139.665C26.8065 138.532 27.0034 137.287 27.7034 136.331C29.5846 133.708 31.2033 130.863 32.6251 127.974C35.1407 122.839 37.5031 116.327 37.5031 110.014V103.768C37.5031 96.6335 39.5374 89.8542 43.1249 84.1196L30.4595 79.4741C28.3815 78.6962 27.0034 76.6957 27.0034 74.4508C27.0034 72.2059 28.3815 70.2054 30.4595 69.4275L91.8174 46.9113ZM97.0017 145.578C73.8147 145.578 55.0027 137.42 55.0027 129.574L58.3495 97.2559L89.455 108.681C91.8612 109.57 94.4424 110.014 97.0017 110.014C99.561 110.014 102.12 109.57 104.548 108.681L135.654 97.2559L139.001 129.574C139.001 137.42 120.189 145.578 97.0017 145.578Z" fill="#005F6A"/>
</svg>
