<svg width="150" height="66" viewBox="0 0 150 66" fill="none" xmlns="http://www.w3.org/2000/svg">
<path fill-rule="evenodd" clip-rule="evenodd" d="M51.3825 0C48.3583 0.896079 46.3818 3.79616 46.6538 6.93865L48.168 24.4364C49.2222 24.3119 50.2949 24.2479 51.3825 24.2479C52.4702 24.2479 53.5429 24.3119 54.5971 24.4364L56.1113 6.93864C56.3832 3.79616 54.4068 0.896079 51.3825 0ZM24.4363 48.1684C24.3119 49.2225 24.2479 50.295 24.2479 51.3825C24.2479 52.4703 24.3119 53.5431 24.4364 54.5974L6.93864 56.1117C3.79616 56.3836 0.896079 54.4072 0 51.3829C0.896079 48.3587 3.79616 46.3822 6.93864 46.6542L24.4363 48.1684ZM28.0486 37.5246C26.7373 39.7277 25.7293 42.1323 25.0818 44.6808L15.6238 41.6889C12.6165 40.7376 10.6935 37.8018 11.023 34.6648C13.0082 32.2137 16.4439 31.4975 19.2431 32.9513L28.0486 37.5246ZM34.6024 30.0571C32.9138 31.3876 31.387 32.9144 30.0566 34.6031L16.6121 23.3002C14.1977 21.2704 13.5446 17.8222 15.0495 15.0501C17.8216 13.5453 21.2698 14.1984 23.2996 16.6127L34.6024 30.0571ZM44.681 25.0818C42.1324 25.7292 39.7278 26.7373 37.5247 28.0486L32.9516 19.2434C31.4978 16.4442 32.2139 13.0086 34.6651 11.0233C37.8021 10.6939 40.7379 12.6169 41.6892 15.6242L44.681 25.0818Z" fill="url(#paint0_radial_254_524)"/>
<path d="M127.767 56.1938L137.99 32.6387H138.236L148.459 56.1938H143.286L136.758 39.6282L139.991 37.4113L132.17 56.1938H127.767ZM134.757 48.0034H141.562L143.132 51.7599H133.371L134.757 48.0034Z" fill="#051937"/>
<path d="M117.381 49.1423L109.036 33.5312H114.548L120.398 45.2934L119.074 45.3858L124.832 33.5312H130.344L121.845 49.1423V56.1934H117.381V49.1423Z" fill="#051937"/>
<path d="M91.9185 33.5312H107.191V37.842H101.679V56.1934H97.2145V37.842H91.9185V33.5312Z" fill="#051937"/>
<path d="M83.144 33.5312H87.6087V56.1934H83.144V33.5312Z" fill="#051937"/>
<path d="M59.3894 56.1934V33.5312H66.1634C68.442 33.5312 70.3818 33.87 71.9829 34.5474C73.5841 35.2248 74.867 36.128 75.8318 37.257C76.8171 38.386 77.5356 39.6484 77.9872 41.0443C78.4388 42.4401 78.6646 43.8462 78.6646 45.2626C78.6646 46.9459 78.3567 48.4649 77.7409 49.8197C77.1456 51.154 76.3245 52.3035 75.2776 53.2683C74.2307 54.2126 73.0196 54.9413 71.6442 55.4545C70.2689 55.9471 68.8115 56.1934 67.2719 56.1934H59.3894ZM63.8541 51.8827H66.5021C67.6311 51.8827 68.6575 51.739 69.5812 51.4516C70.505 51.1437 71.2953 50.7024 71.9521 50.1276C72.6295 49.5528 73.1427 48.8344 73.4917 47.9722C73.8612 47.0896 74.0459 46.0837 74.0459 44.9547C74.0459 43.4768 73.7996 42.2759 73.3069 41.3522C72.8348 40.4079 72.2395 39.6792 71.5211 39.166C70.8231 38.6528 70.1047 38.3039 69.3657 38.1191C68.6267 37.9138 68.0006 37.8112 67.4874 37.8112H63.8541V51.8827Z" fill="#051937"/>
<path d="M35.3943 56.1938L45.6169 32.6387H45.8632L56.0859 56.1938H50.913L44.3853 39.6282L47.6183 37.4113L39.7974 56.1938H35.3943ZM42.3839 48.0034H49.1887L50.759 51.7599H40.9983L42.3839 48.0034Z" fill="#051937"/>
<path d="M147.36 59.7656C147.714 59.7656 148.03 59.8118 148.307 59.9042C148.584 59.9914 148.815 60.1197 149 60.2891C149.189 60.4533 149.333 60.6534 149.431 60.8895C149.528 61.1204 149.577 61.3822 149.577 61.6747C149.577 61.9056 149.541 62.1365 149.469 62.3675C149.402 62.5984 149.289 62.8088 149.13 62.9987C148.976 63.1886 148.771 63.3425 148.515 63.4605C148.258 63.5734 147.94 63.6299 147.56 63.6299H146.759V65.4312H145.643V59.7656H147.36ZM147.552 62.5522C147.722 62.5522 147.863 62.524 147.976 62.4675C148.089 62.4111 148.176 62.3392 148.237 62.252C148.304 62.1648 148.35 62.075 148.376 61.9826C148.407 61.8851 148.422 61.7953 148.422 61.7132C148.422 61.6516 148.412 61.5746 148.391 61.4822C148.376 61.3847 148.34 61.2872 148.284 61.1897C148.227 61.0922 148.14 61.0101 148.022 60.9434C147.909 60.8767 147.755 60.8433 147.56 60.8433H146.759V62.5522H147.552ZM148.599 63.245L150 65.4312H148.699L147.268 63.2758L148.599 63.245Z" fill="#051937"/>
<path d="M139.747 59.7656H143.611V60.8433H140.863V62.0519H143.295V63.1295H140.863V64.3535H143.719V65.4312H139.747V59.7656Z" fill="#051937"/>
<path d="M135.8 59.7656C136.267 59.7656 136.662 59.8452 136.985 60.0043C137.308 60.1582 137.555 60.3789 137.724 60.6663C137.893 60.9485 137.978 61.2846 137.978 61.6747C137.978 61.9056 137.942 62.1391 137.87 62.3752C137.804 62.6061 137.693 62.8165 137.539 63.0064C137.39 63.1963 137.188 63.3502 136.931 63.4682C136.68 63.5811 136.369 63.6376 136 63.6376H135.199V65.4312H134.083V59.7656H135.8ZM135.992 62.5522C136.161 62.5522 136.303 62.524 136.415 62.4675C136.528 62.406 136.616 62.3315 136.677 62.2443C136.744 62.1519 136.79 62.057 136.816 61.9595C136.847 61.862 136.862 61.7773 136.862 61.7055C136.862 61.649 136.852 61.5746 136.831 61.4822C136.816 61.3847 136.78 61.2872 136.723 61.1897C136.667 61.0922 136.58 61.0101 136.462 60.9434C136.349 60.8767 136.195 60.8433 136 60.8433H135.199V62.5522H135.992Z" fill="#051937"/>
<path d="M126.412 62.6071C126.412 62.2171 126.486 61.8476 126.635 61.4987C126.784 61.1497 126.989 60.8418 127.251 60.5749C127.518 60.3029 127.826 60.09 128.175 59.936C128.524 59.7821 128.898 59.7051 129.299 59.7051C129.694 59.7051 130.066 59.7821 130.415 59.936C130.764 60.09 131.072 60.3029 131.338 60.5749C131.61 60.8418 131.821 61.1497 131.97 61.4987C132.124 61.8476 132.201 62.2171 132.201 62.6071C132.201 63.0074 132.124 63.382 131.97 63.731C131.821 64.08 131.61 64.3879 131.338 64.6547C131.072 64.9165 130.764 65.1217 130.415 65.2706C130.066 65.4194 129.694 65.4938 129.299 65.4938C128.898 65.4938 128.524 65.4194 128.175 65.2706C127.826 65.1217 127.518 64.9165 127.251 64.6547C126.989 64.3879 126.784 64.08 126.635 63.731C126.486 63.382 126.412 63.0074 126.412 62.6071ZM127.567 62.6071C127.567 62.8586 127.61 63.0947 127.697 63.3153C127.79 63.5309 127.915 63.7233 128.075 63.8927C128.239 64.0569 128.426 64.1852 128.637 64.2775C128.852 64.3699 129.086 64.4161 129.337 64.4161C129.578 64.4161 129.801 64.3699 130.007 64.2775C130.217 64.1852 130.399 64.0569 130.553 63.8927C130.707 63.7233 130.828 63.5309 130.915 63.3153C131.002 63.0947 131.046 62.8586 131.046 62.6071C131.046 62.3505 131 62.1119 130.907 61.8912C130.82 61.6706 130.697 61.4781 130.538 61.3139C130.384 61.1446 130.202 61.0137 129.991 60.9213C129.781 60.829 129.553 60.7828 129.306 60.7828C129.06 60.7828 128.832 60.829 128.621 60.9213C128.411 61.0137 128.226 61.1446 128.067 61.3139C127.908 61.4781 127.785 61.6706 127.697 61.8912C127.61 62.1119 127.567 62.3505 127.567 62.6071Z" fill="#051937"/>
<path d="M121.215 59.7656H122.331V64.3535H124.994V65.4312H121.215V59.7656Z" fill="#051937"/>
<path d="M115.318 59.7656H119.183V60.8433H116.435V62.0519H118.867V63.1295H116.435V64.3535H119.29V65.4312H115.318V59.7656Z" fill="#051937"/>
<path d="M109.735 59.7656L111.39 63.8454L110.743 63.7146L112.244 59.7656H113.568L110.982 65.6929L108.396 59.7656H109.735Z" fill="#051937"/>
<path d="M102.984 59.7656H106.848V60.8433H104.1V62.0519H106.533V63.1295H104.1V64.3535H106.956V65.4312H102.984V59.7656Z" fill="#051937"/>
<path d="M96.2754 65.4312V59.7656H97.9689C98.5385 59.7656 99.0235 59.8503 99.4238 60.0197C99.8241 60.189 100.145 60.4148 100.386 60.6971C100.632 60.9793 100.812 61.2949 100.925 61.6439C101.038 61.9928 101.094 62.3444 101.094 62.6985C101.094 63.1193 101.017 63.499 100.863 63.8377C100.714 64.1713 100.509 64.4587 100.247 64.6999C99.9857 64.936 99.6829 65.1181 99.3391 65.2464C98.9953 65.3696 98.6309 65.4312 98.246 65.4312H96.2754ZM97.3916 64.3535H98.0536C98.3358 64.3535 98.5924 64.3176 98.8234 64.2457C99.0543 64.1687 99.2519 64.0584 99.4161 63.9147C99.5854 63.771 99.7137 63.5914 99.801 63.3759C99.8933 63.1552 99.9395 62.9037 99.9395 62.6215C99.9395 62.252 99.8779 61.9518 99.7548 61.7209C99.6367 61.4848 99.4879 61.3026 99.3083 61.1743C99.1338 61.046 98.9542 60.9588 98.7695 60.9126C98.5847 60.8613 98.4282 60.8356 98.2999 60.8356H97.3916V64.3535Z" fill="#051937"/>
<path d="M91.3069 65.432C91.2351 65.432 91.1273 65.432 90.9836 65.432C90.8451 65.432 90.7014 65.432 90.5525 65.432C90.4037 65.432 90.2754 65.432 90.1676 65.432C90.065 65.432 90.0137 65.432 90.0137 65.432L87.5196 62.0758C87.4683 62.0039 87.4042 61.9064 87.3272 61.7832C87.2502 61.6549 87.1835 61.5138 87.127 61.3599C87.0706 61.2008 87.0424 61.0417 87.0424 60.8826C87.0424 60.6773 87.0937 60.4746 87.1963 60.2745C87.3041 60.0692 87.4657 59.8999 87.6813 59.7664C87.9019 59.6279 88.1791 59.5586 88.5126 59.5586C88.877 59.5586 89.1977 59.633 89.4748 59.7818C89.752 59.9307 89.9726 60.1103 90.1369 60.3207L89.5749 61.0674C89.4158 60.8929 89.2619 60.7543 89.1131 60.6517C88.9694 60.549 88.8282 60.4977 88.6897 60.4977C88.5152 60.4977 88.3895 60.549 88.3125 60.6517C88.2355 60.7543 88.197 60.8672 88.197 60.9904C88.197 61.0622 88.215 61.1418 88.2509 61.229C88.292 61.3111 88.333 61.3881 88.3741 61.4599C88.4151 61.5267 88.4433 61.5728 88.4587 61.5985L91.3069 65.432ZM88.1893 62.8532C88.0662 62.8532 87.9507 62.8789 87.8429 62.9302C87.7352 62.9764 87.6402 63.0405 87.5581 63.1227C87.476 63.2048 87.4118 63.2971 87.3657 63.3998C87.3246 63.5024 87.3041 63.6102 87.3041 63.7231C87.3041 63.8822 87.3426 64.0233 87.4195 64.1465C87.5017 64.2645 87.612 64.3569 87.7505 64.4236C87.8891 64.4903 88.0405 64.5236 88.2047 64.5236C88.3741 64.5236 88.5126 64.5006 88.6204 64.4544C88.7333 64.403 88.8257 64.3363 88.8975 64.2542C88.9745 64.1721 89.0361 64.0823 89.0823 63.9848L89.7982 64.5775C89.6596 64.8393 89.4466 65.0625 89.1592 65.2472C88.877 65.432 88.5075 65.5244 88.0508 65.5244C87.6967 65.5244 87.3759 65.4499 87.0885 65.3011C86.8012 65.1523 86.5728 64.947 86.4034 64.6853C86.2341 64.4236 86.1494 64.1234 86.1494 63.7847C86.1494 63.5281 86.2059 63.292 86.3188 63.0765C86.4368 62.8609 86.5933 62.6736 86.7883 62.5145C86.9833 62.3554 87.2014 62.2297 87.4426 62.1373C87.6838 62.0398 87.9302 61.9885 88.1816 61.9834L88.1893 62.8532ZM89.8674 61.9834H90.8835L89.929 64.3851L89.1207 63.9078L89.8674 61.9834Z" fill="#051937"/>
<path d="M78.931 59.7656C79.2851 59.7656 79.6007 59.8118 79.8778 59.9042C80.1549 59.9914 80.3858 60.1197 80.5706 60.2891C80.7605 60.4533 80.9041 60.6534 81.0017 60.8895C81.0992 61.1204 81.1479 61.3822 81.1479 61.6747C81.1479 61.9056 81.112 62.1365 81.0401 62.3675C80.9734 62.5984 80.8605 62.8088 80.7014 62.9987C80.5475 63.1886 80.3422 63.3425 80.0856 63.4605C79.829 63.5734 79.5109 63.6299 79.1311 63.6299H78.3305V65.4312H77.2144V59.7656H78.931ZM79.1234 62.5522C79.2927 62.5522 79.4339 62.524 79.5468 62.4675C79.6597 62.4111 79.7469 62.3392 79.8085 62.252C79.8752 62.1648 79.9214 62.075 79.9471 61.9826C79.9778 61.8851 79.9932 61.7953 79.9932 61.7132C79.9932 61.6516 79.983 61.5746 79.9625 61.4822C79.9471 61.3847 79.9111 61.2872 79.8547 61.1897C79.7982 61.0922 79.711 61.0101 79.593 60.9434C79.4801 60.8767 79.3261 60.8433 79.1311 60.8433H78.3305V62.5522H79.1234ZM80.1703 63.245L81.5713 65.4312H80.2704L78.8386 63.2758L80.1703 63.245Z" fill="#051937"/>
<path d="M71.3179 59.7656H75.1821V60.8433H72.434V62.0519H74.8665V63.1295H72.434V64.3535H75.2899V65.4312H71.3179V59.7656Z" fill="#051937"/>
<path d="M69.0582 65.6627L64.7628 61.783L65.0938 61.9678L65.1169 65.4318H63.9854V59.543H64.0315L68.2345 63.4072L67.9882 63.2995L67.9651 59.7662H69.089V65.6627H69.0582Z" fill="#051937"/>
<path d="M61.9476 64.8626C61.8809 64.9344 61.7757 65.0088 61.632 65.0858C61.4883 65.1577 61.3215 65.2244 61.1316 65.286C60.9469 65.3475 60.757 65.3963 60.562 65.4322C60.367 65.4733 60.1822 65.4938 60.0077 65.4938C59.5459 65.4938 59.1302 65.4271 58.7607 65.2937C58.3912 65.1551 58.0756 64.9652 57.8139 64.724C57.5522 64.4777 57.352 64.1877 57.2135 63.8542C57.0749 63.5206 57.0056 63.1562 57.0056 62.7611C57.0056 62.2428 57.0826 61.7937 57.2365 61.414C57.3956 61.0291 57.6086 60.7109 57.8755 60.4595C58.1474 60.2029 58.4579 60.013 58.8069 59.8898C59.161 59.7667 59.5305 59.7051 59.9154 59.7051C60.2797 59.7051 60.6133 59.7461 60.9161 59.8282C61.2189 59.9052 61.4754 60.0027 61.6859 60.1208L61.3241 61.16C61.2317 61.1086 61.1085 61.0573 60.9546 61.006C60.8006 60.9547 60.6441 60.9136 60.485 60.8828C60.3259 60.8469 60.1848 60.829 60.0616 60.829C59.7537 60.829 59.4817 60.8674 59.2457 60.9444C59.0096 61.0214 58.8095 61.1369 58.6452 61.2908C58.4862 61.4448 58.3656 61.6372 58.2834 61.8681C58.2013 62.0939 58.1603 62.3582 58.1603 62.661C58.1603 62.9279 58.2065 63.1691 58.2988 63.3846C58.3912 63.595 58.5195 63.7746 58.6837 63.9234C58.8531 64.0723 59.0507 64.1852 59.2765 64.2622C59.5074 64.3391 59.7614 64.3776 60.0385 64.3776C60.1976 64.3776 60.3439 64.3674 60.4773 64.3468C60.6107 64.3212 60.7236 64.2827 60.816 64.2314V63.5463H59.8384V62.4686H61.9476V64.8626Z" fill="#051937"/>
<path d="M54.0039 59.7656H55.1201V65.4312H54.0039V59.7656Z" fill="#051937"/>
<path d="M51.7714 61.1373C51.5559 61.0193 51.3352 60.9218 51.1094 60.8448C50.8887 60.7678 50.6809 60.7293 50.4859 60.7293C50.2447 60.7293 50.0548 60.7781 49.9162 60.8756C49.7777 60.9731 49.7084 61.1194 49.7084 61.3144C49.7084 61.4478 49.7597 61.5684 49.8624 61.6762C49.9701 61.7788 50.1061 61.8712 50.2703 61.9533C50.4397 62.0354 50.6142 62.1098 50.7938 62.1765C50.958 62.2381 51.1197 62.3125 51.2788 62.3998C51.443 62.4819 51.5892 62.5871 51.7175 62.7154C51.8458 62.8385 51.9485 62.995 52.0254 63.1849C52.1024 63.3697 52.1409 63.598 52.1409 63.87C52.1409 64.1574 52.0665 64.4243 51.9177 64.6706C51.7688 64.9169 51.5507 65.1171 51.2634 65.271C50.976 65.4198 50.6219 65.4943 50.2011 65.4943C49.9855 65.4943 49.7649 65.4737 49.5391 65.4327C49.3184 65.3865 49.1003 65.3198 48.8847 65.2325C48.6692 65.1402 48.4614 65.0247 48.2612 64.8861L48.7539 64.0163C48.8873 64.1138 49.031 64.201 49.185 64.278C49.344 64.3499 49.5031 64.4063 49.6622 64.4474C49.8213 64.4884 49.9676 64.5089 50.101 64.5089C50.2344 64.5089 50.3679 64.491 50.5013 64.4551C50.6398 64.414 50.7527 64.3473 50.84 64.2549C50.9324 64.1625 50.9785 64.0342 50.9785 63.87C50.9785 63.7571 50.9401 63.6545 50.8631 63.5621C50.7912 63.4697 50.6912 63.3851 50.5629 63.3081C50.4397 63.2311 50.3037 63.1644 50.1549 63.1079C49.9804 63.0412 49.8008 62.9643 49.616 62.877C49.4313 62.7898 49.2568 62.6846 49.0926 62.5614C48.9335 62.4331 48.8026 62.2766 48.7 62.0918C48.6025 61.902 48.5537 61.671 48.5537 61.399C48.5537 61.0706 48.6256 60.7858 48.7693 60.5446C48.9181 60.3034 49.1259 60.1135 49.3928 59.975C49.6597 59.8313 49.9676 59.7517 50.3165 59.7363C50.7733 59.7363 51.1428 59.7902 51.425 59.898C51.7124 60.0057 51.969 60.134 52.1948 60.2829L51.7714 61.1373Z" fill="#051937"/>
<path d="M42.8496 59.7656H46.7139V60.8433H43.9658V62.0519H46.3983V63.1295H43.9658V64.3535H46.8217V65.4312H42.8496V59.7656Z" fill="#051937"/>
<path d="M36.1411 65.4312V59.7656H37.8346C38.4043 59.7656 38.8892 59.8503 39.2895 60.0197C39.6898 60.189 40.0105 60.4148 40.2517 60.6971C40.498 60.9793 40.6777 61.2949 40.7906 61.6439C40.9035 61.9928 40.9599 62.3444 40.9599 62.6985C40.9599 63.1193 40.8829 63.499 40.729 63.8377C40.5802 64.1713 40.3749 64.4587 40.1132 64.6999C39.8514 64.936 39.5487 65.1181 39.2048 65.2464C38.861 65.3696 38.4966 65.4312 38.1117 65.4312H36.1411ZM37.2573 64.3535H37.9193C38.2015 64.3535 38.4581 64.3176 38.6891 64.2457C38.92 64.1687 39.1176 64.0584 39.2818 63.9147C39.4511 63.771 39.5794 63.5914 39.6667 63.3759C39.7591 63.1552 39.8052 62.9037 39.8052 62.6215C39.8052 62.252 39.7437 61.9518 39.6205 61.7209C39.5025 61.4848 39.3536 61.3026 39.174 61.1743C38.9995 61.046 38.8199 60.9588 38.6352 60.9126C38.4504 60.8613 38.2939 60.8356 38.1656 60.8356H37.2573V64.3535Z" fill="#051937"/>
<defs>
<radialGradient id="paint0_radial_254_524" cx="0" cy="0" r="1" gradientUnits="userSpaceOnUse" gradientTransform="translate(51.575 50.4207) rotate(180) scale(51.575 51.5753)">
<stop offset="0.5" stop-color="#EFD00C"/>
<stop offset="0.75" stop-color="#F57616"/>
</radialGradient>
</defs>
</svg>
