<svg width="57" height="57" viewBox="0 0 57 57" fill="none" xmlns="http://www.w3.org/2000/svg">
<path fill-rule="evenodd" clip-rule="evenodd" d="M51.3825 0C48.3583 0.896079 46.3818 3.79616 46.6538 6.93865L48.168 24.4364C49.2222 24.3119 50.2949 24.2479 51.3825 24.2479C52.4702 24.2479 53.5429 24.3119 54.5971 24.4364L56.1113 6.93864C56.3832 3.79616 54.4068 0.896079 51.3825 0ZM24.4363 48.1684C24.3119 49.2225 24.2479 50.295 24.2479 51.3825C24.2479 52.4703 24.3119 53.5431 24.4364 54.5974L6.93864 56.1117C3.79616 56.3836 0.896079 54.4072 0 51.3829C0.896079 48.3587 3.79616 46.3822 6.93864 46.6542L24.4363 48.1684ZM28.0486 37.5246C26.7373 39.7277 25.7293 42.1323 25.0818 44.6808L15.6238 41.6889C12.6165 40.7376 10.6935 37.8018 11.023 34.6648C13.0082 32.2137 16.4439 31.4975 19.2431 32.9513L28.0486 37.5246ZM34.6024 30.0571C32.9138 31.3876 31.387 32.9144 30.0566 34.6031L16.6121 23.3002C14.1977 21.2704 13.5446 17.8222 15.0495 15.0501C17.8216 13.5453 21.2698 14.1984 23.2996 16.6127L34.6024 30.0571ZM44.681 25.0818C42.1324 25.7292 39.7278 26.7373 37.5247 28.0486L32.9516 19.2434C31.4978 16.4442 32.2139 13.0086 34.6651 11.0233C37.8021 10.6939 40.7379 12.6169 41.6892 15.6242L44.681 25.0818Z" fill="url(#paint0_radial_261_101)"/>
<path d="M35.3943 56.1938L45.6169 32.6387H45.8632L56.0859 56.1938H50.913L44.3853 39.6282L47.6183 37.4113L39.7974 56.1938H35.3943ZM42.3839 48.0034H49.1887L50.759 51.7599H40.9983L42.3839 48.0034Z" fill="#051937"/>
<defs>
<radialGradient id="paint0_radial_261_101" cx="0" cy="0" r="1" gradientUnits="userSpaceOnUse" gradientTransform="translate(51.575 50.4207) rotate(180) scale(51.575 51.5753)">
<stop offset="0.5" stop-color="#EFD00C"/>
<stop offset="0.75" stop-color="#F57616"/>
</radialGradient>
</defs>
</svg>
